<svg width="55" height="48" viewBox="0 0 55 48" fill="none" xmlns="http://www.w3.org/2000/svg">
<path fill-rule="evenodd" clip-rule="evenodd" d="M22.7626 20.8139C20.8705 19.6046 18.3838 19.52 16.3761 21.2786C13.9279 23.4232 13.531 27.1343 15.5143 29.7508L15.5996 29.8632L22.7636 36.9644L29.9277 29.8632L30.0129 29.7508C31.9784 27.1579 31.6546 23.4116 29.1313 21.2615C27.1153 19.5436 24.6509 19.6062 22.7626 20.8139ZM21.3554 24.7814C20.5973 23.8727 19.5223 23.7766 18.7655 24.4395C17.928 25.1731 17.8308 26.2647 18.3788 27.0785L22.7636 31.4248L27.149 27.078C27.7134 26.2433 27.6025 25.1561 26.7817 24.4567C25.9765 23.7706 24.9162 23.8893 24.1719 24.7814L22.7636 26.4693L21.3554 24.7814Z" fill="#E99312" stroke="#E7E7E7" stroke-linecap="round" stroke-linejoin="round"/>
<path fill-rule="evenodd" clip-rule="evenodd" d="M1 1H41.9546V10.0857H54V46.4286H1V1ZM5.81818 14.6286V41.8857H49.1818V35.0714H39.5455V21.4429H49.1818V14.6286H5.81818ZM49.1818 25.9857H44.3636V30.5286H49.1818V25.9857ZM5.81818 10.0857V5.54286H37.1364V10.0857H5.81818Z" fill="#E99312" stroke="#E7E7E7" stroke-width="2" stroke-linecap="round" stroke-linejoin="round"/>
</svg>
