<svg width="68" height="47" viewBox="0 0 68 47" fill="none" xmlns="http://www.w3.org/2000/svg">
<path fill-rule="evenodd" clip-rule="evenodd" d="M34.0803 1.68317C34.0478 1.6828 34.0153 1.68262 33.9827 1.68262C29.268 1.68262 25.4459 5.57049 25.4459 10.3664C25.4459 15.1624 29.268 19.0502 33.9827 19.0502C34.0153 19.0502 34.0478 19.0501 34.0803 19.0497C34.1128 19.0501 34.1453 19.0502 34.1779 19.0502C38.8927 19.0502 42.7147 15.1624 42.7147 10.3664C42.7147 5.57049 38.8927 1.68262 34.1779 1.68262C34.1453 1.68262 34.1128 1.6828 34.0803 1.68317ZM34.0803 6.02564C36.3926 6.07841 38.2511 8.00164 38.2511 10.3664C38.2511 12.7312 36.3926 14.6545 34.0803 14.7072C31.768 14.6545 29.9095 12.7312 29.9095 10.3664C29.9095 8.00164 31.768 6.07841 34.0803 6.02564ZM21.1775 14.7083C21.1775 11.1114 18.311 8.19548 14.7749 8.19548C11.2389 8.19548 8.37232 11.1114 8.37232 14.7083C8.37232 18.3053 11.2389 21.2212 14.7749 21.2212C18.311 21.2212 21.1775 18.3053 21.1775 14.7083ZM14.7749 12.5374C15.9536 12.5374 16.9091 13.5094 16.9091 14.7083C16.9091 15.9073 15.9536 16.8793 14.7749 16.8793C13.5962 16.8793 12.6407 15.9073 12.6407 14.7083C12.6407 13.5094 13.5962 12.5374 14.7749 12.5374ZM48.9221 45.1017H19.2385H1.96973V36.4179C1.96973 29.224 7.70281 23.3921 14.7749 23.3921C17.8309 23.3921 20.6375 24.4826 22.8376 26.2981C25.5715 23.1851 29.551 21.2212 33.9827 21.2212C34.0153 21.2212 34.0478 21.2213 34.0803 21.2215C34.1128 21.2213 34.1454 21.2212 34.1779 21.2212C38.6096 21.2212 42.5891 23.1851 45.323 26.2981C47.5232 24.4826 50.3297 23.3921 53.3857 23.3921C60.4578 23.3921 66.1909 29.224 66.1909 36.4179V45.1017H48.9221ZM19.0433 36.4179C19.0433 34.1049 19.5526 31.9088 20.4639 29.943C18.9523 28.5673 16.9598 27.7341 14.7749 27.7341C10.0602 27.7341 6.23812 31.6219 6.23812 36.4179V40.7598H19.0433V36.4179ZM23.5069 40.7598V36.4179C23.5069 30.4561 28.2318 25.6168 34.0803 25.5635C39.9288 25.6168 44.6537 30.4561 44.6537 36.4179V40.7598H23.5069ZM46.9831 14.7083C46.9831 11.1114 49.8496 8.19548 53.3857 8.19548C56.9218 8.19548 59.7883 11.1114 59.7883 14.7083C59.7883 18.3053 56.9218 21.2212 53.3857 21.2212C49.8496 21.2212 46.9831 18.3053 46.9831 14.7083ZM53.3857 12.5374C52.207 12.5374 51.2515 13.5094 51.2515 14.7083C51.2515 15.9073 52.207 16.8793 53.3857 16.8793C54.5644 16.8793 55.5199 15.9073 55.5199 14.7083C55.5199 13.5094 54.5644 12.5374 53.3857 12.5374ZM49.1173 36.4179C49.1173 34.1049 48.608 31.9088 47.6967 29.943C49.2083 28.5673 51.2008 27.7341 53.3857 27.7341C58.1004 27.7341 61.9225 31.6219 61.9225 36.4179V40.7598H49.1173V36.4179Z" fill="#E99312"/>
<path d="M34.0803 1.68317L34.0689 2.68311C34.0765 2.68319 34.0841 2.68319 34.0917 2.68311L34.0803 1.68317ZM34.0803 19.0497L34.0917 18.0498C34.0841 18.0497 34.0765 18.0497 34.0689 18.0498L34.0803 19.0497ZM34.0803 6.02564L34.1031 5.0259C34.0879 5.02555 34.0727 5.02555 34.0575 5.0259L34.0803 6.02564ZM34.0803 14.7072L34.0575 15.707C34.0727 15.7073 34.0879 15.7073 34.1031 15.707L34.0803 14.7072ZM1.96973 45.1017H0.969727C0.969727 45.654 1.41744 46.1017 1.96973 46.1017L1.96973 45.1017ZM22.8376 26.2981L22.2012 27.0694C22.6179 27.4133 23.2325 27.364 23.589 26.958L22.8376 26.2981ZM34.0803 21.2215L34.0738 22.2216L34.0868 22.2215L34.0803 21.2215ZM45.323 26.2981L44.5716 26.958C44.9282 27.364 45.5427 27.4133 45.9595 27.0694L45.323 26.2981ZM66.1909 45.1017V46.1017C66.7432 46.1017 67.1909 45.654 67.1909 45.1017H66.1909ZM20.4639 29.943L21.3711 30.3636C21.5549 29.9672 21.4601 29.4975 21.137 29.2034L20.4639 29.943ZM6.23812 40.7598H5.23812C5.23812 41.3121 5.68584 41.7598 6.23812 41.7598V40.7598ZM19.0433 40.7598V41.7598C19.5956 41.7598 20.0433 41.3121 20.0433 40.7598H19.0433ZM23.5069 40.7598H22.5069C22.5069 41.3121 22.9546 41.7598 23.5069 41.7598V40.7598ZM34.0803 25.5635L34.0894 24.5636C34.0834 24.5635 34.0773 24.5635 34.0712 24.5636L34.0803 25.5635ZM44.6537 40.7598V41.7598C45.206 41.7598 45.6537 41.3121 45.6537 40.7598H44.6537ZM47.6967 29.943L47.0237 29.2034C46.7006 29.4975 46.6058 29.9672 46.7895 30.3636L47.6967 29.943ZM61.9225 40.7598V41.7598C62.4748 41.7598 62.9225 41.3121 62.9225 40.7598H61.9225ZM49.1173 40.7598H48.1173C48.1173 41.3121 48.565 41.7598 49.1173 41.7598V40.7598ZM33.9827 2.68262C34.0115 2.68262 34.0402 2.68278 34.0689 2.68311L34.0917 0.683238C34.0554 0.682824 34.0191 0.682617 33.9827 0.682617V2.68262ZM26.4459 10.3664C26.4459 6.10661 29.8363 2.68262 33.9827 2.68262V0.682617C28.6997 0.682617 24.4459 5.03437 24.4459 10.3664H26.4459ZM33.9827 18.0502C29.8363 18.0502 26.4459 14.6262 26.4459 10.3664H24.4459C24.4459 15.6985 28.6997 20.0502 33.9827 20.0502V18.0502ZM34.0689 18.0498C34.0402 18.0501 34.0115 18.0502 33.9827 18.0502V20.0502C34.0191 20.0502 34.0554 20.05 34.0917 20.0496L34.0689 18.0498ZM34.0689 20.0496C34.1052 20.05 34.1415 20.0502 34.1779 20.0502V18.0502C34.1491 18.0502 34.1204 18.0501 34.0917 18.0498L34.0689 20.0496ZM34.1779 20.0502C39.461 20.0502 43.7147 15.6985 43.7147 10.3664H41.7147C41.7147 14.6262 38.3243 18.0502 34.1779 18.0502V20.0502ZM43.7147 10.3664C43.7147 5.03437 39.461 0.682617 34.1779 0.682617V2.68262C38.3243 2.68262 41.7147 6.10661 41.7147 10.3664H43.7147ZM34.1779 0.682617C34.1415 0.682617 34.1052 0.682824 34.0689 0.683238L34.0917 2.68311C34.1204 2.68278 34.1491 2.68262 34.1779 2.68262V0.682617ZM39.2511 10.3664C39.2511 7.47263 36.9729 5.09139 34.1031 5.0259L34.0575 7.02538C35.8123 7.06542 37.2511 8.53066 37.2511 10.3664H39.2511ZM34.1031 15.707C36.9729 15.6415 39.2511 13.2602 39.2511 10.3664H37.2511C37.2511 12.2022 35.8123 13.6674 34.0575 13.7075L34.1031 15.707ZM34.1031 13.7075C32.3484 13.6674 30.9095 12.2022 30.9095 10.3664H28.9095C28.9095 13.2602 31.1877 15.6415 34.0575 15.707L34.1031 13.7075ZM30.9095 10.3664C30.9095 8.53066 32.3484 7.06542 34.1031 7.02538L34.0575 5.0259C31.1877 5.09139 28.9095 7.47263 28.9095 10.3664H30.9095ZM14.7749 9.19548C17.7427 9.19548 20.1775 11.6475 20.1775 14.7083H22.1775C22.1775 10.5753 18.8793 7.19548 14.7749 7.19548V9.19548ZM9.37232 14.7083C9.37232 11.6475 11.8072 9.19548 14.7749 9.19548V7.19548C10.6706 7.19548 7.37232 10.5753 7.37232 14.7083H9.37232ZM14.7749 20.2212C11.8072 20.2212 9.37232 17.7692 9.37232 14.7083H7.37232C7.37232 18.8414 10.6706 22.2212 14.7749 22.2212V20.2212ZM20.1775 14.7083C20.1775 17.7692 17.7427 20.2212 14.7749 20.2212V22.2212C18.8793 22.2212 22.1775 18.8414 22.1775 14.7083H20.1775ZM17.9091 14.7083C17.9091 12.9732 16.5219 11.5374 14.7749 11.5374V13.5374C15.3853 13.5374 15.9091 14.0455 15.9091 14.7083H17.9091ZM14.7749 17.8793C16.5219 17.8793 17.9091 16.4434 17.9091 14.7083H15.9091C15.9091 15.3712 15.3853 15.8793 14.7749 15.8793V17.8793ZM11.6407 14.7083C11.6407 16.4434 13.0279 17.8793 14.7749 17.8793V15.8793C14.1645 15.8793 13.6407 15.3712 13.6407 14.7083H11.6407ZM14.7749 11.5374C13.0279 11.5374 11.6407 12.9732 11.6407 14.7083H13.6407C13.6407 14.0455 14.1645 13.5374 14.7749 13.5374V11.5374ZM48.9221 44.1017H19.2385V46.1017H48.9221V44.1017ZM1.96973 46.1017H19.2385V44.1017H1.96973V46.1017ZM0.969727 36.4179V45.1017H2.96973V36.4179H0.969727ZM14.7749 22.3921C7.13449 22.3921 0.969727 28.6878 0.969727 36.4179H2.96973C2.96973 29.7601 8.27112 24.3921 14.7749 24.3921V22.3921ZM23.4741 25.5268C21.1029 23.5702 18.0736 22.3921 14.7749 22.3921V24.3921C17.5883 24.3921 20.172 25.395 22.2012 27.0694L23.4741 25.5268ZM33.9827 20.2212C29.248 20.2212 24.9996 22.3208 22.0862 25.6383L23.589 26.958C26.1434 24.0493 29.8541 22.2212 33.9827 22.2212V20.2212ZM34.0868 20.2215C34.0521 20.2213 34.0174 20.2212 33.9827 20.2212V22.2212C34.0131 22.2212 34.0435 22.2213 34.0738 22.2215L34.0868 20.2215ZM34.0868 22.2215C34.1171 22.2213 34.1475 22.2212 34.1779 22.2212V20.2212C34.1432 20.2212 34.1085 20.2213 34.0738 20.2215L34.0868 22.2215ZM34.1779 22.2212C38.3065 22.2212 42.0172 24.0493 44.5716 26.958L46.0744 25.6383C43.161 22.3208 38.9127 20.2212 34.1779 20.2212V22.2212ZM45.9595 27.0694C47.9886 25.395 50.5723 24.3921 53.3857 24.3921V22.3921C50.0871 22.3921 47.0577 23.5702 44.6865 25.5268L45.9595 27.0694ZM53.3857 24.3921C59.8895 24.3921 65.1909 29.7601 65.1909 36.4179H67.1909C67.1909 28.6878 61.0261 22.3921 53.3857 22.3921V24.3921ZM65.1909 36.4179V45.1017H67.1909V36.4179H65.1909ZM66.1909 44.1017H48.9221V46.1017H66.1909V44.1017ZM19.5566 29.5224C18.5854 31.6176 18.0433 33.957 18.0433 36.4179H20.0433C20.0433 34.2528 20.5198 32.2 21.3711 30.3636L19.5566 29.5224ZM14.7749 28.7341C16.6997 28.7341 18.4549 29.4668 19.7908 30.6826L21.137 29.2034C19.4497 27.6679 17.22 26.7341 14.7749 26.7341V28.7341ZM7.23812 36.4179C7.23812 32.1581 10.6285 28.7341 14.7749 28.7341V26.7341C9.49187 26.7341 5.23812 31.0858 5.23812 36.4179H7.23812ZM7.23812 40.7598V36.4179H5.23812V40.7598H7.23812ZM19.0433 39.7598H6.23812V41.7598H19.0433V39.7598ZM18.0433 36.4179V40.7598H20.0433V36.4179H18.0433ZM22.5069 36.4179V40.7598H24.5069V36.4179H22.5069ZM34.0712 24.5636C27.6587 24.622 22.5069 29.9228 22.5069 36.4179H24.5069C24.5069 30.9894 28.805 26.6117 34.0894 26.5635L34.0712 24.5636ZM34.0712 26.5635C39.3557 26.6117 43.6537 30.9894 43.6537 36.4179H45.6537C45.6537 29.9228 40.5019 24.622 34.0894 24.5636L34.0712 26.5635ZM43.6537 36.4179V40.7598H45.6537V36.4179H43.6537ZM23.5069 41.7598H44.6537V39.7598H23.5069V41.7598ZM53.3857 7.19548C49.2813 7.19548 45.9831 10.5753 45.9831 14.7083H47.9831C47.9831 11.6475 50.418 9.19548 53.3857 9.19548V7.19548ZM60.7883 14.7083C60.7883 10.5753 57.4901 7.19548 53.3857 7.19548V9.19548C56.3535 9.19548 58.7883 11.6475 58.7883 14.7083H60.7883ZM53.3857 22.2212C57.4901 22.2212 60.7883 18.8414 60.7883 14.7083H58.7883C58.7883 17.7692 56.3535 20.2212 53.3857 20.2212V22.2212ZM45.9831 14.7083C45.9831 18.8414 49.2813 22.2212 53.3857 22.2212V20.2212C50.418 20.2212 47.9831 17.7692 47.9831 14.7083H45.9831ZM52.2515 14.7083C52.2515 14.0455 52.7753 13.5374 53.3857 13.5374V11.5374C51.6387 11.5374 50.2515 12.9732 50.2515 14.7083H52.2515ZM53.3857 15.8793C52.7753 15.8793 52.2515 15.3712 52.2515 14.7083H50.2515C50.2515 16.4434 51.6387 17.8793 53.3857 17.8793V15.8793ZM54.5199 14.7083C54.5199 15.3712 53.9961 15.8793 53.3857 15.8793V17.8793C55.1327 17.8793 56.5199 16.4434 56.5199 14.7083H54.5199ZM53.3857 13.5374C53.9961 13.5374 54.5199 14.0455 54.5199 14.7083H56.5199C56.5199 12.9732 55.1327 11.5374 53.3857 11.5374V13.5374ZM46.7895 30.3636C47.6408 32.2 48.1173 34.2528 48.1173 36.4179H50.1173C50.1173 33.957 49.5752 31.6176 48.604 29.5224L46.7895 30.3636ZM53.3857 26.7341C50.9407 26.7341 48.7109 27.6679 47.0237 29.2034L48.3698 30.6826C49.7057 29.4668 51.461 28.7341 53.3857 28.7341V26.7341ZM62.9225 36.4179C62.9225 31.0858 58.6688 26.7341 53.3857 26.7341V28.7341C57.5321 28.7341 60.9225 32.1581 60.9225 36.4179H62.9225ZM62.9225 40.7598V36.4179H60.9225V40.7598H62.9225ZM49.1173 41.7598H61.9225V39.7598H49.1173V41.7598ZM48.1173 36.4179V40.7598H50.1173V36.4179H48.1173Z" fill="#E7E7E7"/>
</svg>
