<svg width="55" height="55" viewBox="0 0 55 55" fill="none" xmlns="http://www.w3.org/2000/svg">
<path d="M36.9297 19.6055L26.2955 30.4501L19.2748 23.2906L22.6818 19.8163L26.2955 23.5014L33.5227 16.1312L36.9297 19.6055Z" fill="#E99312"/>
<path fill-rule="evenodd" clip-rule="evenodd" d="M27.5 2L54 18.2145V54H1V18.2145L27.5 2ZM5.81818 26.7808L27.5 42.2584L49.1818 26.7808V49.0865H5.81818V26.7808ZM49.0209 20.898L27.5 7.73007L5.97912 20.898L27.5 36.2607L49.0209 20.898Z" fill="#E99312"/>
<path d="M36.9297 19.6055L26.2955 30.4501L19.2748 23.2906L22.6818 19.8163L26.2955 23.5014L33.5227 16.1312L36.9297 19.6055Z" stroke="#E7E7E7" stroke-width="2" stroke-linecap="square"/>
<path fill-rule="evenodd" clip-rule="evenodd" d="M27.5 2L54 18.2145V54H1V18.2145L27.5 2ZM5.81818 26.7808L27.5 42.2584L49.1818 26.7808V49.0865H5.81818V26.7808ZM49.0209 20.898L27.5 7.73007L5.97912 20.898L27.5 36.2607L49.0209 20.898Z" stroke="#E7E7E7" stroke-width="2" stroke-linecap="square"/>
</svg>
