<svg width="21" height="27" viewBox="0 0 21 27" fill="none" xmlns="http://www.w3.org/2000/svg">
<path fill-rule="evenodd" clip-rule="evenodd" d="M5.73353 11.0907C5.73353 8.44626 7.86753 6.30248 10.5 6.30248C13.1324 6.30248 15.2664 8.44626 15.2664 11.0907C15.2664 13.7351 13.1324 15.8789 10.5 15.8789C7.86753 15.8789 5.73353 13.7351 5.73353 11.0907ZM10.5 8.69657C9.18378 8.69657 8.11677 9.76845 8.11677 11.0907C8.11677 12.4129 9.18378 13.4848 10.5 13.4848C11.8162 13.4848 12.8832 12.4129 12.8832 11.0907C12.8832 9.76845 11.8162 8.69657 10.5 8.69657Z" fill="#E99312"/>
<path fill-rule="evenodd" clip-rule="evenodd" d="M10.5 0L13.3658 2.23047L16.9894 2.11813L18.0027 5.61476L21 7.66346L19.7739 11.0907L21 14.5179L18.0027 16.5666L16.9894 20.0632L16.3394 20.043L18.0708 27L10.5 25.4789L2.92912 27L4.66047 20.0431L4.01064 20.0632L2.99726 16.5666L0 14.5179L1.2261 11.0907L0 7.66346L2.99726 5.61476L4.01064 2.11813L7.63421 2.23047L10.5 0ZM7.13615 19.9663L6.15458 23.9105L10.5 23.0374L14.8453 23.9105L13.8637 19.9663L13.3658 19.9509L10.5 22.1813L7.63421 19.9509L7.13615 19.9663ZM15.2173 17.613L15.9539 15.0712L18.1327 13.582L17.2414 11.0907L18.1327 8.59934L15.9539 7.1101L15.2173 4.5683L12.5832 4.64997L10.5 3.02858L8.41678 4.64997L5.78272 4.5683L5.04607 7.1101L2.86729 8.59934L3.75857 11.0907L2.86729 13.582L5.04607 15.0712L5.78272 17.613L8.41678 17.5314L10.5 19.1527L12.5832 17.5314L15.2173 17.613Z" fill="#E99312"/>
</svg>
