<svg width="28" height="24" viewBox="0 0 28 24" fill="none" xmlns="http://www.w3.org/2000/svg">
<path fill-rule="evenodd" clip-rule="evenodd" d="M11.4972 10.4677C10.4976 9.82879 9.18391 9.78406 8.12323 10.7132C6.82983 11.8461 6.62016 13.8067 7.66795 15.189L7.71297 15.2484L11.4978 19L15.2826 15.2484L15.3276 15.189C16.3659 13.8192 16.1949 11.84 14.8618 10.7041C13.7968 9.79656 12.4948 9.82961 11.4972 10.4677ZM10.7538 12.5637C10.3533 12.0836 9.78535 12.0328 9.38554 12.383C8.9431 12.7706 8.89173 13.3473 9.18125 13.7772L11.4978 16.0734L13.8146 13.777C14.1127 13.336 14.0542 12.7616 13.6205 12.3921C13.1951 12.0297 12.635 12.0924 12.2417 12.5637L11.4978 13.4554L10.7538 12.5637Z" fill="#E99312"/>
<path fill-rule="evenodd" clip-rule="evenodd" d="M0 0H21.6364V4.8H28V24H0V0ZM2.54545 7.2V21.6H25.4545V18H20.3636V10.8H25.4545V7.2H2.54545ZM25.4545 13.2H22.9091V15.6H25.4545V13.2ZM2.54545 4.8V2.4H19.0909V4.8H2.54545Z" fill="#E99312"/>
</svg>
